
<svg version="1.0" xmlns="http://www.w3.org/2000/svg"
 width="260.000000pt" height="278.000000pt" viewBox="0 0 260.000000 278.000000"
 preserveAspectRatio="xMidYMid meet">
 <style>
     .st0{fill:#02b3e4}
 </style>
<g transform="translate(0.000000,278.000000) scale(0.100000,-0.100000)"
fill="#02b3e4" stroke="none">
<path d="M0 1783 c1 -990 1 -998 20 -962 11 20 32 47 47 60 23 19 31 40 45
108 20 97 76 222 149 328 27 40 49 74 49 76 0 2 -25 42 -57 88 -112 167 -160
310 -150 448 6 97 30 154 92 220 58 62 108 92 205 122 67 22 94 24 255 24
l180 0 58 115 c93 186 192 292 324 346 l58 24 -637 0 -638 0 0 -997z"/>
<path d="M1450 2771 c144 -44 289 -196 384 -402 l34 -74 154 3 c129 3 167 1
241 -17 170 -40 265 -115 317 -247 l19 -49 1 398 0 397 -587 -1 c-324 0 -577
-4 -563 -8z"/>
<path d="M1251 2650 c-95 -44 -177 -134 -257 -285 -46 -85 -48 -105 -14 -105
10 0 71 -16 135 -35 l116 -35 32 22 c45 32 133 32 176 0 l31 -23 78 24 c42 14
102 30 132 38 30 7 59 16 63 20 23 19 -110 236 -188 308 -94 87 -209 114 -304
71z"/>
<path d="M468 2174 c-112 -27 -196 -85 -234 -162 -29 -58 -25 -187 9 -274 25
-66 88 -178 127 -228 l19 -25 83 81 c67 66 129 120 226 200 2 1 14 58 27 126
12 68 32 159 44 202 17 63 19 81 9 87 -21 14 -248 9 -310 -7z"/>
<path d="M1923 2183 c-8 -6 -4 -37 17 -118 15 -61 35 -152 44 -204 9 -52 17
-95 18 -96 17 -8 188 -159 238 -209 35 -36 68 -66 72 -66 15 0 106 149 138
227 24 58 34 98 38 160 4 75 2 87 -22 138 -58 117 -168 166 -391 172 -77 2
-145 0 -152 -4z"/>
<path d="M872 2043 c-16 -65 -33 -132 -36 -150 l-5 -31 92 57 c51 32 132 79
180 106 49 26 85 51 80 55 -15 15 -236 80 -269 80 -6 0 -25 -51 -42 -117z"/>
<path d="M1730 2149 c-89 -24 -206 -62 -213 -69 -5 -4 36 -31 90 -60 54 -29
135 -77 181 -106 45 -30 82 -48 82 -41 0 19 -28 134 -52 215 -22 77 -24 78
-88 61z"/>
<path d="M1135 1912 c-155 -84 -322 -198 -328 -224 -3 -13 -8 -81 -11 -153 -4
-118 -4 -123 5 -57 11 69 12 72 38 72 16 0 42 -5 60 -11 29 -10 32 -15 29 -47
-2 -28 -8 -38 -25 -42 -22 -5 -22 -5 5 -37 l27 -33 39 75 c22 42 44 74 50 72
9 -3 45 -125 46 -154 0 -7 -7 -13 -15 -13 -8 0 -15 9 -15 20 0 25 -45 28 -70
5 -27 -24 -76 -9 -101 31 -25 42 -35 43 -42 4 -4 -19 -13 -30 -23 -30 -15 0
-16 -13 -10 -136 4 -75 11 -147 16 -160 13 -34 220 -167 396 -256 l141 -72 54
23 c88 37 266 137 385 217 l112 74 7 127 c10 165 0 480 -15 498 -19 23 -198
139 -313 202 l-107 60 -48 -24 c-53 -27 -104 -26 -157 6 l-30 18 -100 -55z
m-9 -424 l17 -32 24 28 c15 18 29 26 40 22 14 -6 11 -12 -17 -41 -20 -21 -35
-48 -39 -71 -9 -54 -31 -57 -31 -4 0 22 -9 58 -20 80 -24 47 -24 50 -5 50 8 0
22 -14 31 -32z m149 -40 c10 -29 21 -57 25 -61 4 -5 22 15 40 42 36 57 50 64
50 24 0 -71 -13 -133 -27 -133 -12 0 -14 10 -11 40 2 22 3 40 2 40 -1 0 -12
-16 -24 -35 -12 -19 -26 -35 -31 -35 -5 0 -16 17 -26 38 l-17 37 -4 -32 c-2
-21 -9 -33 -18 -33 -13 0 -14 10 -9 58 13 120 24 131 50 50z m268 2 c10 -14
12 -34 7 -71 -8 -62 -30 -83 -75 -73 -51 11 -58 22 -52 86 3 31 8 61 12 67 3
6 26 11 50 11 32 0 48 -5 58 -20z m107 -47 c34 -56 35 -57 38 -28 5 57 12 79
24 67 14 -14 0 -162 -16 -162 -6 0 -24 23 -40 52 -25 44 -30 49 -37 32 -4 -10
-8 -31 -8 -46 -1 -19 -6 -28 -17 -28 -14 0 -15 9 -10 58 9 79 16 112 24 112 4
0 23 -26 42 -57z m220 9 c19 -15 21 -23 15 -68 -10 -74 -16 -79 -76 -77 -28 1
-54 4 -56 7 -3 2 -2 39 2 80 l7 76 43 0 c26 0 51 -7 65 -18z"/>
<path d="M1460 1430 c-6 -12 -10 -38 -8 -58 3 -34 6 -37 33 -37 28 0 30 3 35
48 3 26 1 52 -4 57 -17 17 -45 11 -56 -10z"/>
<path d="M1790 1397 c0 -8 -3 -35 -6 -61 l-7 -47 34 3 c31 3 34 6 42 47 10 48
5 56 -35 66 -21 5 -28 3 -28 -8z"/>
<path d="M2582 1758 c-16 -72 -81 -204 -142 -292 l-50 -73 56 -84 c66 -97 111
-189 135 -274 17 -59 18 -55 18 358 1 229 0 417 -2 417 -1 0 -8 -24 -15 -52z"/>
<path d="M571 1503 l-112 -106 98 -99 c54 -55 105 -103 113 -108 13 -7 15 19
15 206 0 118 -1 214 -1 214 -1 0 -52 -48 -113 -107z"/>
<path d="M2020 1391 l0 -212 76 68 c41 37 90 86 109 109 l34 41 -92 89 c-142
139 -127 150 -127 -95z"/>
<path d="M836 1507 c-7 -27 0 -37 28 -37 30 0 51 23 34 37 -28 22 -56 21 -62
0z"/>
<path d="M1002 1446 c-10 -23 -9 -26 8 -26 21 0 23 4 11 33 -6 17 -8 16 -19
-7z"/>
<path d="M343 1238 c-65 -100 -105 -188 -127 -279 -5 -25 -3 -27 34 -32 46 -6
90 -35 128 -84 25 -33 27 -44 27 -125 l0 -88 30 -10 c62 -20 182 -31 268 -24
84 6 89 7 84 28 -3 11 -17 65 -31 119 -14 54 -31 136 -38 184 l-12 85 -86 73
c-47 40 -116 105 -155 144 -38 39 -72 71 -75 71 -3 0 -24 -28 -47 -62z"/>
<path d="M2273 1262 c-25 -31 -113 -111 -246 -224 -23 -20 -30 -38 -47 -133
-11 -60 -31 -152 -45 -203 -14 -51 -25 -95 -25 -98 0 -2 11 -4 24 -4 16 0 27
7 31 20 9 27 51 58 96 70 53 14 113 -3 153 -43 35 -36 50 -36 121 0 145 72
189 202 128 385 -24 74 -128 258 -150 265 -5 2 -23 -14 -40 -35z"/>
<path d="M836 893 c19 -86 54 -222 63 -245 l10 -27 108 29 c59 16 126 35 147
43 l39 13 -89 49 c-49 26 -131 74 -183 107 -51 32 -95 58 -97 58 -3 0 -2 -12
2 -27z"/>
<path d="M1764 857 c-55 -34 -135 -80 -177 -102 -42 -22 -77 -43 -77 -47 0 -8
133 -50 227 -71 l61 -15 21 77 c30 111 53 213 48 217 -1 2 -48 -25 -103 -59z"/>
<path d="M139 791 c-40 -41 -40 -91 0 -132 22 -21 39 -29 66 -29 27 0 44 8 66
29 40 41 40 91 0 132 -41 40 -91 40 -132 0z"/>
<path d="M2590 783 c-1 -34 -39 -103 -85 -152 -47 -50 -135 -100 -212 -121
-24 -6 -43 -16 -43 -22 0 -6 -12 -27 -26 -46 -65 -85 -189 -82 -251 6 -23 32
-35 41 -65 44 l-37 3 -45 -92 c-59 -122 -110 -195 -188 -269 -66 -63 -140
-108 -205 -123 -24 -6 191 -9 565 -10 l602 -1 0 400 c0 220 -2 400 -5 400 -3
0 -5 -8 -5 -17z"/>
<path d="M0 333 l0 -333 653 1 c541 1 644 3 607 13 -25 7 -64 22 -87 34 -102
53 -233 212 -307 373 l-34 75 -83 -8 c-138 -15 -333 8 -407 46 -23 12 -31 12
-52 0 -14 -7 -51 -13 -83 -14 -87 0 -150 38 -190 115 -15 28 -16 7 -17 -302z"/>
<path d="M1230 600 c-58 -21 -145 -48 -193 -60 -103 -26 -101 -18 -29 -148 62
-111 156 -213 230 -249 73 -36 156 -37 221 -4 58 30 144 111 191 181 38 56
100 173 100 188 0 5 -39 19 -87 32 -49 12 -137 40 -197 61 -60 22 -114 39
-120 38 -6 -1 -58 -18 -116 -39z"/>
<path d="M2070 570 c-11 -11 -20 -23 -20 -28 0 -18 33 -52 50 -52 17 0 50 34
50 52 0 11 -38 48 -50 48 -5 0 -19 -9 -30 -20z"/>
</g>
</svg>
